<svg xmlns="http://www.w3.org/2000/svg" viewBox="0 0 148.38 108.79"><defs><style>.cls-1{fill:#fff}</style></defs><title>Recurso 1</title><g id="Capa_2" data-name="Capa 2"><g id="Capa_1-2" data-name="Capa 1"><path d="M74.28,18.29l.46-.88C79.5,8.3,86.87,2.54,97,.59a31.31,31.31,0,0,1,36.27,23,32.27,32.27,0,0,1,1.18,9.69,31.08,31.08,0,0,1-13,24.48c-3.47,2-6.88,4.08-10.94,4.76a24.14,24.14,0,0,1-21.32-6.16,23.18,23.18,0,0,1-7.71-15.5c-.84-9.67,2.83-17.33,10.69-23A17.53,17.53,0,0,1,99,14.73a16.15,16.15,0,0,1,6.63,31.6,15.71,15.71,0,0,1-14.65-4,2.09,2.09,0,0,0-.75-.51c.16.24.3.48.47.71a18.58,18.58,0,0,0,14.11,8c8.2.58,14.48-2.76,18.66-9.85a18.06,18.06,0,0,0,2.29-10.43A22.31,22.31,0,0,0,124.63,24a13.75,13.75,0,0,0-3.56-5.51,26,26,0,0,0-15.91-7.16A26.35,26.35,0,0,0,77,32.61a18.46,18.46,0,0,0-.39,4.45c0,.51,0,1,0,1.59H72c0-.42,0-.86,0-1.3A25,25,0,0,0,66.14,21a25.36,25.36,0,0,0-17.3-9.59A25.77,25.77,0,0,0,27.27,18.7a13.53,13.53,0,0,0-3.85,7.07,21.17,21.17,0,0,0,.13,11.3c2.42,7.46,7.57,12,15.28,13.32S53,48.93,57.77,42.67c.16-.2.29-.42.43-.64a3.28,3.28,0,0,0,.15-.38l-.72.65A16.15,16.15,0,1,1,44.38,14.59a16.36,16.36,0,0,1,11.49,2.84,25.25,25.25,0,0,1,8.66,9.49A24.63,24.63,0,0,1,47.35,62.48,24.09,24.09,0,0,1,29,58.77a32.72,32.72,0,0,1-3-1.89A31,31,0,0,1,14.46,36.7C12.56,23.48,19.14,7.86,34.83,2A31.39,31.39,0,0,1,73.66,17.08Z" class="cls-1"/><path d="M13,16.61c-.15.3-.29.6-.44.89a32.22,32.22,0,0,0-3,7.92,24,24,0,0,0,.42,11.47,54.68,54.68,0,0,0,2.86,7.9c.11.25.21.51.35.86-.15-.11-.21-.13-.23-.17A48,48,0,0,1,7.81,36a16,16,0,0,1,.93-13.22A26.18,26.18,0,0,1,13,16.61Z" class="cls-1"/><path d="M135.3,45.43c.13-.31.25-.63.39-.93a49,49,0,0,0,3.07-9,23.49,23.49,0,0,0-1.34-14.56c-.53-1.26-1.16-2.49-1.75-3.73l-.43-.88a1.86,1.86,0,0,1,.32.21,30.26,30.26,0,0,1,5.21,9,15.69,15.69,0,0,1-.4,10.93,43.84,43.84,0,0,1-3.69,7.08c-.4.66-.82,1.3-1.23,2Z" class="cls-1"/><path d="M7.89,19.95c-.41.85-.84,1.69-1.22,2.54a18.55,18.55,0,0,0-1.77,8.16A21.6,21.6,0,0,0,6.17,37.2c.45,1.3,1,2.57,1.48,3.85a7,7,0,0,1,.26.69A25.24,25.24,0,0,1,3.5,32.92a11.05,11.05,0,0,1,.27-6A19.73,19.73,0,0,1,7.89,19.95Z" class="cls-1"/><path d="M140.56,41.5c.14-.37.23-.63.33-.88A36.19,36.19,0,0,0,143,34.27a18,18,0,0,0-1.07-11.19c-.37-.87-.8-1.71-1.2-2.57a2,2,0,0,1-.2-.61c2.14,2.66,4,5.47,4.49,8.92a11.42,11.42,0,0,1-.5,5.35,31.47,31.47,0,0,1-3.71,7.15S140.74,41.39,140.56,41.5Z" class="cls-1"/><path d="M145.4,38a22.16,22.16,0,0,0,1.82-7,15,15,0,0,0-1.72-7c2.19,2.77,3.67,5.72,2.41,9.37A19,19,0,0,1,145.4,38Z" class="cls-1"/><path d="M2.83,24.16c-.11.25-.2.5-.32.74A15.32,15.32,0,0,0,1.23,29a13,13,0,0,0,.61,5.83c.23.76.54,1.5.81,2.26.06.18.11.36.17.57-.09,0-.13,0-.14,0C1.15,35.33-.16,33,0,30.09a8.22,8.22,0,0,1,.73-2.81A9.61,9.61,0,0,1,2.83,24.16Z" class="cls-1"/><path d="M38.78,90.54l-1.9,3.93-.77-.37a14.28,14.28,0,0,0-5.21-1.66,5.27,5.27,0,0,0-1.37.07,1.39,1.39,0,0,0-.57,2.6,5.9,5.9,0,0,0,1.3.65c.89.31,1.81.53,2.7.85a25.64,25.64,0,0,1,3.1,1.23c3.74,1.92,3.49,7.17.5,9.22a9,9,0,0,1-4.41,1.54,14.64,14.64,0,0,1-10.12-2.84l-.36-.26,1.93-3.9.65.45a13.17,13.17,0,0,0,5.37,2.39,5.21,5.21,0,0,0,2.55-.06,1.57,1.57,0,0,0,1.25-1.27,1.53,1.53,0,0,0-.87-1.72,13.42,13.42,0,0,0-2-.81c-1.14-.37-2.32-.65-3.45-1.05a10.37,10.37,0,0,1-2-1c-2.95-1.83-2.76-6-.81-8a7.12,7.12,0,0,1,3.83-2,14.88,14.88,0,0,1,10.29,1.7A3,3,0,0,1,38.78,90.54Z" class="cls-1"/><path d="M60.53,93.19c.21,0,.38-.05.54-.05H65.4v2.11l.17,0c.13-.14.26-.27.38-.42a6.27,6.27,0,0,1,7.77-1.14,5.33,5.33,0,0,1,2.37,3.82,1,1,0,0,1,0,.17c0,3.55,0,7.1,0,10.71H71.26v-.95q0-3.44,0-6.88c0-.2,0-.4,0-.6a2.62,2.62,0,0,0-1.77-2.58,3,3,0,0,0-3.33,1,3.71,3.71,0,0,0-.75,2.33q0,3.35,0,6.71c0,.31,0,.62,0,1H60.58C60.42,107.84,60.36,94.69,60.53,93.19Z" class="cls-1"/><path d="M116.33,97.72l-1.34-3c.22-.12.4-.24.6-.32A16.54,16.54,0,0,1,121,92.9a10.74,10.74,0,0,1,3.75.31,5.15,5.15,0,0,1,4,5.13c0,.26,0,.52,0,.77q0,4.17,0,8.34c0,.31,0,.62,0,1H124l-.09-1.4a1.1,1.1,0,0,0-.26.12,6.32,6.32,0,0,1-6.59,1.23,4.71,4.71,0,0,1-2.69-6.47,4.13,4.13,0,0,1,2.22-2.05,9,9,0,0,1,3.53-.63c1.23,0,2.46,0,3.67,0A1.86,1.86,0,0,0,122.7,97a4.06,4.06,0,0,0-2.61-.26C118.87,97,117.67,97.35,116.33,97.72Zm7.57,4.25c-1.31,0-2.57-.09-3.81,0a1.56,1.56,0,0,0-1.21,2.43,1.83,1.83,0,0,0,1.47.93,3.57,3.57,0,0,0,2.88-.85A2.52,2.52,0,0,0,123.89,102Z" class="cls-1"/><path d="M95,102.12H84.34A3.4,3.4,0,0,0,88.25,105a5.12,5.12,0,0,0,2.68-1.06l.61-.48c.43.41.86.81,1.28,1.22s.84.85,1.29,1.3a7.79,7.79,0,0,1-3.48,2.21,10,10,0,0,1-6.42,0,7,7,0,0,1-4.86-6.09,9.15,9.15,0,0,1,.25-3.75A7.22,7.22,0,0,1,86.11,93a12.86,12.86,0,0,1,3.08.12,6.59,6.59,0,0,1,5.61,5.33A8.89,8.89,0,0,1,95,102.12ZM84.24,99.45h5.93a2.66,2.66,0,0,0-2.46-3A3.12,3.12,0,0,0,84.24,99.45Z" class="cls-1"/><path d="M46.22,102.09a3.45,3.45,0,0,0,3.9,2.9,5.24,5.24,0,0,0,2.75-1.1l.53-.41L55.91,106a6.14,6.14,0,0,1-2.26,1.7,9.88,9.88,0,0,1-7.85.33,6.89,6.89,0,0,1-4.6-6.37,10.23,10.23,0,0,1,.23-3.06A7.2,7.2,0,0,1,48,93a10.5,10.5,0,0,1,3.59.22A6.72,6.72,0,0,1,56.79,99c.18,1,.18,2,.27,3.08Zm5.86-2.64a2.74,2.74,0,0,0-2.9-3.07,3,3,0,0,0-3,3.07Z" class="cls-1"/><path d="M112.15,96.41l-3.62,2.21a3.64,3.64,0,0,0-.49-.69,3.44,3.44,0,0,0-3.51-.8,3.19,3.19,0,0,0-2.13,2.68,5.11,5.11,0,0,0,.12,2.55,3.26,3.26,0,0,0,5.5,1.41c.22-.22.42-.47.69-.77l3.53,2.08A6.2,6.2,0,0,1,109,108a9.45,9.45,0,0,1-6.81.17,7,7,0,0,1-4.73-5.73,8.94,8.94,0,0,1,.1-3.67,7.27,7.27,0,0,1,6.6-5.74,9.78,9.78,0,0,1,4.49.5A6.87,6.87,0,0,1,112.15,96.41Z" class="cls-1"/><path d="M25.34,78.87v4.47l-.8,0V69.77c.06,0,.1-.11.15-.11,2.06,0,4.13,0,6.17.14A3.9,3.9,0,0,1,34.54,73c.58,3.15-.9,5.36-3.86,5.74a32.49,32.49,0,0,1-3.34.13C26.71,78.88,26.08,78.87,25.34,78.87Zm0-.85c1.6,0,3.09.07,4.58,0,2.65-.15,4-1.72,3.84-4.24a3,3,0,0,0-2-2.82,8.09,8.09,0,0,0-2.26-.45c-1.14-.07-2.29,0-3.44,0-.22,0-.44,0-.68.06Z" class="cls-1"/><path d="M78.82,78.52a4.07,4.07,0,0,0,2.28,3.7,4.78,4.78,0,0,0,5.4-.91l.46.49a4.22,4.22,0,0,1-1.53,1.13c-2.48,1.15-6.07.51-7.14-2.78a5.24,5.24,0,0,1,1.26-5.71,5.19,5.19,0,0,1,5.61-.87,4.85,4.85,0,0,1,2.58,4.69,1.15,1.15,0,0,1-.11.26H78.82Zm.06-.82h8a3.7,3.7,0,0,0-3.68-3.78A4,4,0,0,0,78.88,77.7Z" class="cls-1"/><path d="M60.26,78.34a4.91,4.91,0,0,1-5.06,5.12,5.18,5.18,0,1,1,5.06-5.12Zm-.84-.07a4.2,4.2,0,0,0-1.78-3.63,4.33,4.33,0,0,0-6.05,1.21,4.56,4.56,0,0,0,1.51,6.3,4.07,4.07,0,0,0,.79.33A4.2,4.2,0,0,0,59.42,78.27Z" class="cls-1"/><path d="M118.38,78.32a5,5,0,0,1,6.78-4.92,4.6,4.6,0,0,1,2.44,1.81c1.58,2.22,1.34,7-2.71,8A5,5,0,0,1,118.38,78.32Zm5,4.35a4.38,4.38,0,0,0,0-8.76,4.38,4.38,0,0,0,0,8.76Z" class="cls-1"/><path d="M64.29,86.67l.31-.64c2,.78,3,.34,3.82-1.61a2.22,2.22,0,0,0,0-1.94c-1.2-2.79-2.33-5.6-3.48-8.41-.1-.25-.19-.52-.29-.79.8-.1.81-.1,1.07.54l3.11,7.63c.11.26.22.51.39.89.16-.35.26-.56.35-.78l3.12-7.82c.23-.57.24-.57,1-.46-.1.28-.19.54-.29.8q-2.15,5.29-4.31,10.58a7,7,0,0,1-.68,1.29A2.81,2.81,0,0,1,64.29,86.67Z" class="cls-1"/><path d="M46.56,91.38l3-4.79L54,88.12c-.2.22-.32.37-.46.49-.91.79-1.83,1.56-2.73,2.36a1.47,1.47,0,0,1-1.08.42C48.75,91.36,47.75,91.38,46.56,91.38Z" class="cls-1"/><path d="M101.76,74.62l-.38.49a3.33,3.33,0,0,1-.29-.18A4.51,4.51,0,0,0,97.21,74,4,4,0,0,0,94,77.53a5.67,5.67,0,0,0,0,1.79,4.27,4.27,0,0,0,6.82,2.48c.2-.15.39-.33.71-.61l.4.49c-1,1.73-4.75,2.66-7.14.61a5.48,5.48,0,0,1-.3-7.72A5.12,5.12,0,0,1,101.76,74.62Z" class="cls-1"/><path d="M109.12,73.36V70.87h.82v2.51h3.43v.71H110a6.68,6.68,0,0,0-.08.72q0,2.79,0,5.59a4.36,4.36,0,0,0,.1,1,1.47,1.47,0,0,0,1.81,1.18,12,12,0,0,0,1.44-.46l.27.57a3.43,3.43,0,0,1-2.54.71A1.88,1.88,0,0,1,109.36,82a5.93,5.93,0,0,1-.22-1.61c0-1.78,0-3.55,0-5.33,0-.28,0-.57,0-.94l-1.44-.09-.06-.62Z" class="cls-1"/><path d="M45.41,73.2a2.79,2.79,0,0,1,0,.33c0,.11,0,.23,0,.36a1.51,1.51,0,0,1-.31.12,3.68,3.68,0,0,0-3.45,3.88c0,1.52,0,3,0,4.55,0,.28,0,.56,0,.88l-.79,0V73.24l.76,0v2.09a17.85,17.85,0,0,1,1.63-1.54A3,3,0,0,1,45.41,73.2Z" class="cls-1"/></g></g></svg>