<svg xmlns="http://www.w3.org/2000/svg" xmlns:xlink="http://www.w3.org/1999/xlink" width="48" height="48" version="1.1"><defs><linearGradient id="color-1" x1="14.23" x2="54.983" y1="14.23" y2="54.983" gradientUnits="userSpaceOnUse"><stop offset="0" stop-color="#000" stop-opacity=".3"/><stop offset="1" stop-color="#000" stop-opacity="0"/></linearGradient><filter id="dropshadow-base"><feColorMatrix type="matrix" values="0 0 0 0 0 0 0 0 0 0 0 0 0 0 0 0 0 0 .8 0"/><feOffset dx="0" dy="1"/><feGaussianBlur stdDeviation="1"/><feComposite in="SourceGraphic"/></filter><filter id="dropshadow-banner" width="120%" height="130%" x="-10%" y="-10%"><feColorMatrix type="matrix" values="0 0 0 0 0 0 0 0 0 0 0 0 0 0 0 0 0 0 .4 0"/><feOffset dx="0" dy="1"/><feGaussianBlur stdDeviation=".5"/><feComposite in="SourceGraphic"/></filter></defs><g fill="none" fill-rule="nonzero" stroke="none" stroke-dashoffset="0" stroke-linecap="butt" stroke-linejoin="miter" stroke-miterlimit="10" stroke-width="none" font-family="none" font-size="none" font-weight="none" text-anchor="none" style="mix-blend-mode:normal"><path id="base 1 5" fill="#2da839" stroke-width="1" d="M2,24c0,-12.15026 9.84974,-22 22,-22c12.15026,0 22,9.84974 22,22c0,12.15026 -9.84974,22 -22,22c-12.15026,0 -22,-9.84974 -22,-22z"/><path fill="url(#color-1)" stroke-width="1" d="M22.91443,14.22989l2.17113,2.17113v-2.17113h8.68454l12.10722,12.10722c-1.08588,10.28356 -9.25666,18.45434 -19.54022,19.54022l-12.10722,-12.10722v-6.51341l2.17113,0l-2.17113,-2.17113v-10.85568z"/><path fill="none" stroke-width="0" d="M14.22989,25.08557h8.68454v-10.85568h-8.68454zM14.22989,33.77011h8.68454v-6.51341h-8.68454zM25.08557,33.77011h8.68454v-10.85568h-8.68454zM25.08557,14.22989v6.51341h8.68454v-6.51341z"/><path fill="#fff" stroke-width="0" d="M14.22989,14.22989h8.68454v10.85568h-8.68454zM14.22989,27.2567h8.68454v6.51341h-8.68454zM25.08557,22.91443h8.68454v10.85568h-8.68454zM33.77011,14.22989v6.51341h-8.68454v-6.51341z"/><path id="base 1 1 1" fill="none" stroke-width="1" d="M2,24c0,-12.15026 9.84974,-22 22,-22c12.15026,0 22,9.84974 22,22c0,12.15026 -9.84974,22 -22,22c-12.15026,0 -22,-9.84974 -22,-22z"/><rect width="44" height="22" x="2" y="2" fill="none" stroke-width="1"/><path fill="none" stroke-width="1" d="M2,24v-22h44v22z"/><path fill="none" stroke-width="1" d="M2,24v-22h44v22z"/><path fill="none" stroke-width="1" d="M2,24v-22h44v22z"/><path fill="none" stroke-width="1" d="M2,24v-22h44v22z"/></g></svg>