<svg xmlns="http://www.w3.org/2000/svg" width="359.681" height="63.414" viewBox="0 0 359.681 63.414"><defs><style>.cls-1{fill:#d5dbe7}.cls-2{fill:#02e65f}</style></defs><g id="Layer_2" data-name="Layer 2"><g id="Layer_1-2" data-name="Layer 1"><path d="M280.66,55.0023V21.8794h6.89V25.39a12.3434,12.3434,0,0,1,4.24-3.246,12.5239,12.5239,0,0,1,5.432-1.192,13.9377,13.9377,0,0,1,3.677.4961l-2.75,6.9559a7.1628,7.1628,0,0,0-2.583-.496,7.7354,7.7354,0,0,0-4.008,1.0751,8.2541,8.2541,0,0,0-2.916,2.8989,7.7233,7.7233,0,0,0-1.092,4.0421V55.0023Z" class="cls-1"/><path d="M73.7573,55.8638a15.39,15.39,0,0,1-8.33-2.352,17.5873,17.5873,0,0,1-8.231-15.071,17.84,17.84,0,0,1,4.853-12.371,16.5348,16.5348,0,0,1,5.283-3.759,16.0946,16.0946,0,0,1,13.415.215,16.1779,16.1779,0,0,1,5.432,4.339,18.05,18.05,0,0,1,3.312,6.359,19.4554,19.4554,0,0,1,.629,7.635H64.5823a10.8775,10.8775,0,0,0,1.673,4.124,8.9932,8.9932,0,0,0,3.18,2.898,9.1252,9.1252,0,0,0,4.322,1.094,8.6485,8.6485,0,0,0,4.587-1.26,9.9426,9.9426,0,0,0,3.397-3.477l6.988,1.623a17.3469,17.3469,0,0,1-5.995,7.204,15.3069,15.3069,0,0,1-8.977,2.799M64.35,35.5928h18.815a9.8872,9.8872,0,0,0-1.673-4.323,10.15,10.15,0,0,0-3.346-3.08,8.9846,8.9846,0,0,0-8.744-.017,9.6641,9.6641,0,0,0-3.313,3.064,11.2,11.2,0,0,0-1.739,4.356" class="cls-1"/><path d="M104.2281,55.632a18.4466,18.4466,0,0,1-5.101-1.06,14.546,14.546,0,0,1-4.356-2.434,9.8475,9.8475,0,0,1-2.799-3.6279l5.863-2.517a5.2566,5.2566,0,0,0,1.507,1.7559,9.176,9.176,0,0,0,2.534,1.4071,8.5967,8.5967,0,0,0,3.048.547,9.1492,9.1492,0,0,0,2.899-.447,5.1709,5.1709,0,0,0,2.202-1.375,3.1467,3.1467,0,0,0,.861-2.22,2.7866,2.7866,0,0,0-.977-2.268,6.7668,6.7668,0,0,0-2.434-1.2421q-1.4595-.43-2.916-.829a28.3846,28.3846,0,0,1-5.945-2.004,11.7689,11.7689,0,0,1-4.29-3.2779,7.6712,7.6712,0,0,1-1.59-4.919,9.0343,9.0343,0,0,1,1.723-5.516,11.2122,11.2122,0,0,1,4.52-3.5931,14.4208,14.4208,0,0,1,5.98-1.258,15.8071,15.8071,0,0,1,7.287,1.6881,12.1652,12.1652,0,0,1,5.067,4.638l-5.465,3.245a5.3742,5.3742,0,0,0-1.49-1.7871,8.3117,8.3117,0,0,0-2.253-1.2769,8.4771,8.4771,0,0,0-2.616-.5461,9.3019,9.3019,0,0,0-3.13.3811,5.0014,5.0014,0,0,0-2.302,1.4079,3.5294,3.5294,0,0,0-.861,2.4511,2.4589,2.4589,0,0,0,1.026,2.17,8.4431,8.4431,0,0,0,2.601,1.142q1.572.432,3.23.961a34.3174,34.3174,0,0,1,5.531,2.2691,12.992,12.992,0,0,1,4.172,3.2959,7.0345,7.0345,0,0,1,1.525,4.7691,8.5232,8.5232,0,0,1-1.872,5.466,11.7956,11.7956,0,0,1-4.853,3.577,14.2,14.2,0,0,1-6.326,1.0269" class="cls-1"/><path d="M123.6443,57.39l.112-.2729a34.5659,34.5659,0,0,1,4.864-8.259,17.1814,17.1814,0,0,0,3.252,4.121,11.859,11.859,0,0,0,8.977,3.14c5.04-.5579,10.261-3.8729,14.888-9.315-1.146-2.1879-1.673-5.077-2.349-7.292-3.957,5.822-8.63,9.836-12.049,10.215-3.552.3861-5.568-1.814-7.679-5.814a62.3636,62.3636,0,0,1,13.25-9.5409l.877-.49-2.619-5.617-.995.5031A60.3707,60.3707,0,0,0,128.67,40.1793l7.505-26.193h-6.834L116.9073,57.39Z" class="cls-1"/><path d="M166.23,55.8645a15.4012,15.4012,0,0,1-8.33-2.352,17.5886,17.5886,0,0,1-8.232-15.0721,17.8471,17.8471,0,0,1,4.854-12.371,16.543,16.543,0,0,1,5.282-3.7589,15.9055,15.9055,0,0,1,14.757.993,17.3777,17.3777,0,0,1,5.996,6.327,18.4178,18.4178,0,0,1,.944,15.568,17.8972,17.8972,0,0,1-3.561,5.5479,16.6,16.6,0,0,1-5.267,3.7591,15.4353,15.4353,0,0,1-6.443,1.359m0-6.89a8.6944,8.6944,0,0,0,4.936-1.4579,10.4152,10.4152,0,0,0,3.462-3.859,11.3534,11.3534,0,0,0-.034-10.516,10.5376,10.5376,0,0,0-3.494-3.859,8.9862,8.9862,0,0,0-9.788.017,10.3253,10.3253,0,0,0-3.478,3.875,11.1217,11.1217,0,0,0-1.275,5.2659,10.7927,10.7927,0,0,0,1.325,5.3331,10.4066,10.4066,0,0,0,3.528,3.793,8.7621,8.7621,0,0,0,4.818,1.4079" class="cls-1"/><path d="M185.7785,55.0023V21.8794h6.89V25.39a12.4914,12.4914,0,0,1,9.639-4.438,12.9125,12.9125,0,0,1,6.526,1.705,13.2227,13.2227,0,0,1,4.736,4.522,13.3318,13.3318,0,0,1,4.687-4.522,12.6406,12.6406,0,0,1,6.476-1.705,12.8556,12.8556,0,0,1,6.69,1.788,13.52,13.52,0,0,1,4.803,4.8031,12.87,12.87,0,0,1,1.788,6.691V55.0023h-6.889V35.9893a7.8284,7.8284,0,0,0-1.059-4.007,8.4734,8.4734,0,0,0-2.849-2.9479,7.3086,7.3086,0,0,0-3.975-1.1261,7.6448,7.6448,0,0,0-3.975,1.06,7.9273,7.9273,0,0,0-2.849,2.8811,8.0879,8.0879,0,0,0-1.06,4.14v19.013h-6.889V35.9893a8.0879,8.0879,0,0,0-1.06-4.14,7.8779,7.8779,0,0,0-2.865-2.8811,7.7366,7.7366,0,0,0-3.992-1.06,7.33,7.33,0,0,0-3.958,1.1261,8.3942,8.3942,0,0,0-2.864,2.9479,7.8105,7.8105,0,0,0-1.061,4.007v19.013Z" class="cls-1"/><path d="M259.2206,20.9518a16.894,16.894,0,0,1,8.795,2.352,17.8064,17.8064,0,0,1,6.309,6.31,17.5893,17.5893,0,0,1,.994,15.568,17.6578,17.6578,0,0,1-9.324,9.324,16.9949,16.9949,0,0,1-6.774,1.358,11.3212,11.3212,0,0,1-6.077-1.606,13.5582,13.5582,0,0,1-4.257-4.124v4.869h-6.89V5.3178h6.89v21.365a13.24,13.24,0,0,1,4.257-4.141,11.4115,11.4115,0,0,1,6.077-1.59m-.066,28.2209a9.8888,9.8888,0,0,0,5.266-1.4579,10.801,10.801,0,0,0,3.793-3.908,11.1236,11.1236,0,0,0-.017-10.864,10.8249,10.8249,0,0,0-3.808-3.893,9.9432,9.9432,0,0,0-5.234-1.44,8.9289,8.9289,0,0,0-5.068,1.457,9.9339,9.9339,0,0,0-3.411,3.909,12.6467,12.6467,0,0,0,0,10.864,9.8031,9.8031,0,0,0,3.411,3.892,8.9961,8.9961,0,0,0,5.068,1.4409" class="cls-1"/><path d="M315.291,55.8645a15.4012,15.4012,0,0,1-8.33-2.352A17.5886,17.5886,0,0,1,298.729,38.44a17.8471,17.8471,0,0,1,4.854-12.371,16.543,16.543,0,0,1,5.282-3.7589,15.9055,15.9055,0,0,1,14.757.993,17.386,17.386,0,0,1,5.996,6.327,18.4178,18.4178,0,0,1,.944,15.568,17.8972,17.8972,0,0,1-3.561,5.5479,16.6,16.6,0,0,1-5.267,3.7591,15.4353,15.4353,0,0,1-6.443,1.359m0-6.89a8.6944,8.6944,0,0,0,4.936-1.4579,10.4152,10.4152,0,0,0,3.462-3.859,11.3534,11.3534,0,0,0-.034-10.516,10.5376,10.5376,0,0,0-3.494-3.859,8.9862,8.9862,0,0,0-9.788.017,10.3253,10.3253,0,0,0-3.478,3.875A11.1217,11.1217,0,0,0,305.62,38.44a10.7927,10.7927,0,0,0,1.325,5.3331,10.4066,10.4066,0,0,0,3.528,3.793,8.7621,8.7621,0,0,0,4.818,1.4079" class="cls-1"/><path d="M346.5972,55.632a18.4466,18.4466,0,0,1-5.101-1.06,14.5162,14.5162,0,0,1-4.355-2.434,9.8264,9.8264,0,0,1-2.799-3.6279l5.862-2.517a5.245,5.245,0,0,0,1.507,1.7559,9.1677,9.1677,0,0,0,2.535,1.4071,8.5858,8.5858,0,0,0,3.046.547,9.1492,9.1492,0,0,0,2.899-.447,5.1744,5.1744,0,0,0,2.203-1.375,3.1476,3.1476,0,0,0,.862-2.22,2.7873,2.7873,0,0,0-.978-2.268,6.7518,6.7518,0,0,0-2.436-1.2421q-1.4565-.43-2.914-.829a28.365,28.365,0,0,1-5.945-2.004,11.7566,11.7566,0,0,1-4.289-3.2779,7.66,7.66,0,0,1-1.591-4.919,9.0343,9.0343,0,0,1,1.723-5.516,11.2117,11.2117,0,0,1,4.522-3.5931,14.4015,14.4015,0,0,1,5.978-1.258,15.81,15.81,0,0,1,7.287,1.6881,12.1739,12.1739,0,0,1,5.068,4.638l-5.466,3.245a5.3742,5.3742,0,0,0-1.49-1.7871,8.3209,8.3209,0,0,0-2.252-1.2769,8.49,8.49,0,0,0-2.618-.5461,9.3024,9.3024,0,0,0-3.129.3811,5.0048,5.0048,0,0,0-2.303,1.4079,3.5382,3.5382,0,0,0-.86,2.4511,2.4573,2.4573,0,0,0,1.027,2.17,8.43,8.43,0,0,0,2.599,1.142q1.572.432,3.23.961a34.254,34.254,0,0,1,5.532,2.2691,13.0073,13.0073,0,0,1,4.173,3.2959,7.0383,7.0383,0,0,1,1.523,4.7691,8.528,8.528,0,0,1-1.871,5.466,11.7924,11.7924,0,0,1-4.852,3.577,14.2041,14.2041,0,0,1-6.327,1.0269" class="cls-1"/><path d="M26.6933,5.6652A25.2831,25.2831,0,0,0,15.1483.0773a2.878,2.878,0,0,0-1.975.236,5.7026,5.7026,0,0,0-1.729,1.385c-2.095,2.4639-3.127,5.896-4.201,8.883a122.1314,122.1314,0,0,0-5.734,23.245C.7683,38.7742.3043,43.76.0053,48.7562a3.0266,3.0266,0,0,0,.994,2.4131c1.678,1.5309,3.427,2.9839,5.201,4.405a16.6492,16.6492,0,0,0,7.356,3.735c3.368.616,5.272-.293,6.826-3.3941a45.0194,45.0194,0,0,0,3.309-10.267c2.499-10.914,3.899-22.01,5.543-33.0659a7.2228,7.2228,0,0,0-2.541-6.9171" class="cls-2"/><path d="M28.8036,61.1262c-1.223-2.2039-1.308-4.6609-1.345-7.086a37.6038,37.6038,0,0,1,2.052-13.121,5.9816,5.9816,0,0,1,4.701-4.2349c.103-.02.207-.038.31-.0581,5.623-1.0929,7.802.03,10.403,5.04a164.8356,164.8356,0,0,1,6.462,15.819c.543,1.5571.955,2.715-1.523,3.1871-5.476,1.043-8.655,2.34-14.207,2.699a31.853,31.853,0,0,1-3.298-.001,4.0735,4.0735,0,0,1-3.555-2.2441" class="cls-2"/><path d="M36.24,33.7551a12.4281,12.4281,0,0,1-3.976-.7139,4.0618,4.0618,0,0,1-1.693-6.518,41.9783,41.9783,0,0,1,7.193-6.794,5.0894,5.0894,0,0,1,6.397-.1071,8.7213,8.7213,0,0,1,3.276,4.29c.545,1.523.92,3.097,1.547,4.6059.769,1.8511.02,3.1581-2.125,4.013a22.75,22.75,0,0,1-8.906,1.3551c-.572-.009-1.142-.086-1.713-.1311" class="cls-2"/></g></g></svg>